<?xml version="1.0" standalone="no"?><svg viewBox="0 0 1024 1024" xmlns="http://www.w3.org/2000/svg" width="200" height="200"><path d="M779.715 65.651l-500.826 63.067c-29.779 3.75-54.143 31.183-54.143 60.961v583.939a192.508 192.508 0 0 0-27.072-1.897c-74.756 0-135.358 42.421-135.358 94.751 0 52.329 60.602 94.751 135.358 94.751s135.358-42.421 135.358-94.751c0-1.513-0.056-3.016-0.156-4.512h0.156V352.01l392.54-49.431v362.753a192.508 192.508 0 0 0-27.072-1.897c-74.756 0-135.359 42.421-135.359 94.751 0 52.33 60.602 94.751 135.359 94.751s135.358-42.421 135.358-94.751c0-1.513-0.056-3.016-0.156-4.512h0.156V112.976c0.001-29.778-24.364-51.075-54.143-47.325z" fill="#231F20"/></svg>
